<?xml version="1.0" encoding="UTF-8"?>
<svg id="Layer_1" data-name="Layer 1" xmlns="http://www.w3.org/2000/svg" viewBox="0 0 216.25 63.44">
  <defs>
    <style>
      .cls-1, .cls-2, .cls-3 {
        fill: #fff;
      }

      .cls-4 {
        letter-spacing: -.04em;
      }

      .cls-5 {
        letter-spacing: 0em;
      }

      .cls-6 {
        letter-spacing: 0em;
      }

      .cls-7 {
        letter-spacing: -.02em;
      }

      .cls-8 {
        letter-spacing: 0em;
      }

      .cls-9 {
        letter-spacing: .14em;
      }

      .cls-10 {
        stroke: #fff;
        stroke-miterlimit: 10;
        stroke-width: .85px;
      }

      .cls-10, .cls-11 {
        fill: #b71c1c;
      }

      .cls-12 {
        letter-spacing: 0em;
      }

      .cls-13 {
        letter-spacing: 0em;
      }

      .cls-14 {
        letter-spacing: .04em;
      }

      .cls-2 {
        font-family: RussoOne-Regular, 'Russo One';
        font-size: 5.05px;
      }

      .cls-15 {
        letter-spacing: .16em;
      }

      .cls-16 {
        letter-spacing: .16em;
      }

      .cls-3 {
        font-family: Bahnschrift, Bahnschrift;
        font-size: 15.15px;
        font-variation-settings: 'wght' 400, 'wdth' 100;
      }
    </style>
  </defs>
  <path class="cls-10" d="M31.75,23.24c-.08-3.57,.7-6.78,3.5-9.25,.17,1.45,.23,2.85,.52,4.21,.62,2.9,1.92,5.57,3.12,8.26,1.26,2.82,2.67,5.59,3.44,8.61,3.15,12.48-4.72,25.03-16.82,27.52-5.89,1.21-11.26-.22-16.03-3.8-4.58-3.45-7.48-8.03-8.61-13.65-.96-4.79-.35-9.44,1.7-13.88,.87-1.88,1.79-3.74,2.71-5.59,1.36-2.74,2.72-5.47,2.53-8.76,.23,.1,.39,.12,.5,.22,1.67,1.37,2.6,3.13,2.77,5.29,.2,2.53-.47,4.85-1.74,7.13,.16-.07,.26-.09,.33-.14,4.01-3.32,6.99-7.33,8.3-12.44,1.01-3.94,.75-7.89-.08-11.83-.28-1.35-.63-2.68-.85-4.06,7.06,5.96,11.97,13.34,14.73,22.18Zm-9.43,.18c-.87,4.7-2.96,8.48-6.27,11.61-.96,.9-1.89,1.85-2.73,2.85-2.47,2.94-3.42,6.35-2.58,10.11,1.17,5.22,5.48,8.68,10.85,8.84,2.98,.09,5.64-.82,7.9-2.78,3.06-2.66,4.3-6.06,3.9-10.05-.07-.72,.19-1.12,.65-1.56,1.66-1.55,3.35-3.08,4.94-4.69,1.91-1.94,1.9-5.09,.09-7.05-1.66-1.79-4.69-1.94-6.75-.26-1.09,.89-2.09,1.89-3.13,2.84-.65,.59-1.31,1.17-2.04,1.82-.4-4.41-2.15-8.12-4.83-11.67Z"/>
  <path class="cls-1" d="M22.17,22.61c2.81,3.72,4.65,7.62,5.07,12.24,.76-.68,1.45-1.29,2.13-1.91,1.09-.99,2.14-2.04,3.28-2.97,2.16-1.76,5.34-1.61,7.08,.27,1.9,2.06,1.9,5.36-.1,7.39-1.67,1.7-3.44,3.3-5.18,4.92-.49,.46-.76,.88-.68,1.63,.42,4.19-.88,7.76-4.09,10.54-2.37,2.06-5.15,3.01-8.28,2.92-5.63-.16-10.15-3.79-11.38-9.27-.88-3.94,.11-7.51,2.7-10.6,.89-1.06,1.86-2.04,2.86-2.99,3.47-3.28,5.67-7.24,6.58-12.17Zm15.63,11.53c-.12-.94-.53-1.62-1.35-1.93-.75-.28-1.41-.05-2.01,.53-2.77,2.67-5.57,5.32-8.36,7.98-1.17,1.11-2.33,2.22-3.5,3.33-.82,.78-1.63,1.57-2.51,2.42-.65-.72-1.27-1.37-1.83-2.06-.64-.79-1.9-.97-2.69-.33-1.02,.83-1.16,1.97-.25,2.99,.82,.92,1.77,1.73,2.62,2.64,1.24,1.33,2.54,1.36,3.88,.07,1.68-1.63,3.38-3.25,5.09-4.85,3.41-3.21,6.84-6.41,10.23-9.64,.19-.18,.16-.58,.22-.88,.02-.08-.03-.18-.05-.33,.17,.02,.3,.04,.52,.07Z"/>
  <path class="cls-11" d="M37.12,35.28c-1.28,1.41-2.05,1.94-2.77,2.62-2.49,2.34-4.98,4.68-7.47,7.02-1.71,1.61-3.4,3.22-5.09,4.85-1.33,1.29-2.63,1.26-3.88-.07-.84-.91-1.8-1.71-2.62-2.64-.68-.76-.77-1.59-.35-2.31,.81-1.37,2.37-1.46,3.38-.24,.5,.61,1.06,1.19,1.63,1.82,.06,.07,.17,.07,.23,0,.83-.8,1.61-1.56,2.39-2.3,1.16-1.11,2.33-2.22,3.5-3.33,2.79-2.66,5.59-5.3,8.36-7.98,.6-.58,1.25-.81,2.01-.53,.1,.04,.39,.15,.67,.41,.08,.08,.63,.6,.65,1.3,.01,.62-.39,1.08-.65,1.36Z"/>
  <text class="cls-3" transform="translate(49.26 36.77)"><tspan class="cls-5" x="0" y="0">F</tspan><tspan class="cls-6" x="8.62" y="0">IRE RI</tspan><tspan class="cls-13" x="49.83" y="0">S</tspan><tspan class="cls-8" x="59.01" y="0">K </tspan><tspan class="cls-4" x="72.8" y="0">A</tspan><tspan class="cls-7" x="82.01" y="0">S</tspan><tspan class="cls-13" x="91.05" y="0">S</tspan><tspan class="cls-12" x="100.23" y="0">E</tspan><tspan class="cls-7" x="109.28" y="0">S</tspan><tspan class="cls-13" x="118.31" y="0">S</tspan><tspan x="127.49" y="0">ME</tspan><tspan class="cls-14" x="148.35" y="0">N</tspan><tspan x="159.55" y="0">T</tspan></text>
  <text class="cls-2" transform="translate(72.12 46.05)"><tspan class="cls-15" x="0" y="0">PROTECT </tspan><tspan class="cls-9" x="31.48" y="0">Y</tspan><tspan class="cls-16" x="35.57" y="0">OUR PREMISES FROM FIRE</tspan></text>
</svg>