<?xml version="1.0" encoding="utf-8"?>
<!-- Generator: Adobe Illustrator 27.0.0, SVG Export Plug-In . SVG Version: 6.00 Build 0)  -->
<svg version="1.1" id="Layer_1" xmlns="http://www.w3.org/2000/svg" xmlns:xlink="http://www.w3.org/1999/xlink" x="0px" y="0px"
	 viewBox="0 0 230 80" style="enable-background:new 0 0 230 80;" xml:space="preserve">
<style type="text/css">
	.st0{fill:#B71C1C;stroke:#FFFFFF;stroke-width:0.8482;stroke-miterlimit:10;}
	.st1{fill:#FFFFFF;}
	.st2{fill:#B71C1C;}
	.st3{fill:#FFFFFF;stroke:#FFFFFF;stroke-miterlimit:10;}
	.st4{font-family:'RussoOne-Regular';}
	.st5{font-size:5.0494px;}
</style>
<path class="st0" d="M38.8,31.6c-0.1-3.6,0.7-6.8,3.5-9.2c0.2,1.4,0.2,2.9,0.5,4.2c0.6,2.9,1.9,5.6,3.1,8.3c1.3,2.8,2.7,5.6,3.4,8.6
	c3.1,12.5-4.7,25-16.8,27.5c-5.9,1.2-11.3-0.2-16-3.8c-4.6-3.4-7.5-8-8.6-13.6C7,48.7,7.6,44,9.6,39.6c0.9-1.9,1.8-3.7,2.7-5.6
	c1.4-2.7,2.7-5.5,2.5-8.8c0.2,0.1,0.4,0.1,0.5,0.2c1.7,1.4,2.6,3.1,2.8,5.3c0.2,2.5-0.5,4.8-1.7,7.1c0.2-0.1,0.3-0.1,0.3-0.1
	c4-3.3,7-7.3,8.3-12.4c1-3.9,0.7-7.9-0.1-11.8c-0.3-1.3-0.6-2.7-0.9-4.1C31.2,15.3,36.1,22.7,38.8,31.6z M29.4,31.7
	c-0.9,4.7-3,8.5-6.3,11.6c-1,0.9-1.9,1.8-2.7,2.9c-2.5,2.9-3.4,6.3-2.6,10.1c1.2,5.2,5.5,8.7,10.8,8.8c3,0.1,5.6-0.8,7.9-2.8
	c3.1-2.7,4.3-6.1,3.9-10.1c-0.1-0.7,0.2-1.1,0.7-1.6c1.7-1.5,3.3-3.1,4.9-4.7c1.9-1.9,1.9-5.1,0.1-7c-1.7-1.8-4.7-1.9-6.7-0.3
	c-1.1,0.9-2.1,1.9-3.1,2.8c-0.6,0.6-1.3,1.2-2,1.8C33.8,39,32.1,35.3,29.4,31.7z"/>
<path class="st1" d="M29.2,30.9c2.8,3.7,4.6,7.6,5.1,12.2c0.8-0.7,1.5-1.3,2.1-1.9c1.1-1,2.1-2,3.3-3c2.2-1.8,5.3-1.6,7.1,0.3
	c1.9,2.1,1.9,5.4-0.1,7.4c-1.7,1.7-3.4,3.3-5.2,4.9c-0.5,0.5-0.8,0.9-0.7,1.6c0.4,4.2-0.9,7.8-4.1,10.5c-2.4,2.1-5.2,3-8.3,2.9
	c-5.6-0.2-10.2-3.8-11.4-9.3c-0.9-3.9,0.1-7.5,2.7-10.6c0.9-1.1,1.9-2,2.9-3C26.1,39.8,28.3,35.9,29.2,30.9z M44.9,42.5
	c-0.1-0.9-0.5-1.6-1.4-1.9c-0.8-0.3-1.4,0-2,0.5c-2.8,2.7-5.6,5.3-8.4,8c-1.2,1.1-2.3,2.2-3.5,3.3c-0.8,0.8-1.6,1.6-2.5,2.4
	c-0.6-0.7-1.3-1.4-1.8-2.1c-0.6-0.8-1.9-1-2.7-0.3c-1,0.8-1.2,2-0.3,3c0.8,0.9,1.8,1.7,2.6,2.6c1.2,1.3,2.5,1.4,3.9,0.1
	c1.7-1.6,3.4-3.2,5.1-4.9c3.4-3.2,6.8-6.4,10.2-9.6c0.2-0.2,0.2-0.6,0.2-0.9c0-0.1,0-0.2-0.1-0.3C44.5,42.4,44.7,42.4,44.9,42.5z"/>
<path class="st2" d="M44.2,43.6c-1.3,1.4-2.1,1.9-2.8,2.6c-2.5,2.3-5,4.7-7.5,7c-1.7,1.6-3.4,3.2-5.1,4.9c-1.3,1.3-2.6,1.3-3.9-0.1
	c-0.8-0.9-1.8-1.7-2.6-2.6c-0.7-0.8-0.8-1.6-0.4-2.3c0.8-1.4,2.4-1.5,3.4-0.2c0.5,0.6,1.1,1.2,1.6,1.8c0.1,0.1,0.2,0.1,0.2,0
	c0.8-0.8,1.6-1.6,2.4-2.3c1.2-1.1,2.3-2.2,3.5-3.3c2.8-2.7,5.6-5.3,8.4-8c0.6-0.6,1.3-0.8,2-0.5c0.1,0,0.4,0.2,0.7,0.4
	c0.1,0.1,0.6,0.6,0.6,1.3C44.9,42.9,44.4,43.3,44.2,43.6z"/>
<g>
	<g>
		<path class="st3" d="M57.7,34.3h1.5v10.8h-1.5V34.3z M58.4,34.3h6v1.4h-6V34.3z M58.4,39.1h5.2v1.4h-5.2V39.1z"/>
		<path class="st3" d="M67.6,45.1h-1.5V34.3h1.5V45.1z"/>
		<path class="st3" d="M70.3,34.3h1.5v10.8h-1.5V34.3z M71,39.1h3.7c0.3,0,0.5-0.1,0.8-0.2c0.2-0.1,0.4-0.3,0.5-0.6
			c0.1-0.3,0.2-0.5,0.2-0.9c0-0.3-0.1-0.6-0.2-0.9c-0.1-0.3-0.3-0.4-0.5-0.6c-0.2-0.1-0.5-0.2-0.8-0.2H71v-1.4h3.6
			c0.6,0,1.2,0.1,1.6,0.4c0.5,0.3,0.8,0.6,1.1,1.1c0.3,0.5,0.4,1,0.4,1.6c0,0.6-0.1,1.2-0.4,1.6c-0.3,0.5-0.6,0.8-1.1,1.1
			c-0.5,0.3-1,0.4-1.6,0.4H71V39.1z M73.9,40.2l1.5-0.3l2.8,5.2h-1.8L73.9,40.2z"/>
		<path class="st3" d="M80.2,34.3h1.5v10.8h-1.5V34.3z M80.9,34.3h6.2v1.4h-6.2V34.3z M80.9,39h5.4v1.4h-5.4V39z M80.9,43.7h6.2v1.4
			h-6.2V43.7z"/>
		<path class="st3" d="M93.3,34.3h1.5v10.8h-1.5V34.3z M94,39.1h3.7c0.3,0,0.5-0.1,0.8-0.2c0.2-0.1,0.4-0.3,0.5-0.6
			c0.1-0.3,0.2-0.5,0.2-0.9c0-0.3-0.1-0.6-0.2-0.9c-0.1-0.3-0.3-0.4-0.5-0.6c-0.2-0.1-0.5-0.2-0.8-0.2H94v-1.4h3.6
			c0.6,0,1.2,0.1,1.6,0.4c0.5,0.3,0.8,0.6,1.1,1.1c0.3,0.5,0.4,1,0.4,1.6c0,0.6-0.1,1.2-0.4,1.6c-0.3,0.5-0.6,0.8-1.1,1.1
			c-0.5,0.3-1,0.4-1.6,0.4H94V39.1z M96.9,40.2l1.5-0.3l2.8,5.2h-1.8L96.9,40.2z"/>
		<path class="st3" d="M104.7,45.1h-1.5V34.3h1.5V45.1z"/>
		<path class="st3" d="M109.1,45.1c-0.5-0.1-0.9-0.2-1.3-0.4s-0.8-0.4-1.1-0.7l0.9-1.2c0.4,0.4,0.9,0.6,1.4,0.8
			c0.5,0.2,1,0.3,1.6,0.3c0.8,0,1.4-0.1,1.8-0.4c0.4-0.3,0.6-0.7,0.6-1.2v0c0-0.4-0.1-0.7-0.3-0.9c-0.2-0.2-0.4-0.4-0.8-0.5
			s-0.7-0.2-1.2-0.3c0,0,0,0,0,0c0,0,0,0,0,0l-0.1,0c-0.7-0.1-1.3-0.3-1.8-0.4s-0.8-0.4-1.2-0.9c-0.3-0.4-0.5-1-0.5-1.8v0
			c0-0.7,0.1-1.2,0.4-1.7c0.3-0.5,0.7-0.8,1.3-1.1c0.6-0.2,1.3-0.4,2.1-0.4c0.4,0,0.8,0,1.1,0.1c0.4,0.1,0.7,0.2,1.1,0.4
			c0.4,0.2,0.7,0.4,1.1,0.6l-0.9,1.2c-0.4-0.3-0.8-0.5-1.2-0.7s-0.8-0.2-1.2-0.2c-0.7,0-1.3,0.1-1.7,0.4s-0.6,0.7-0.6,1.2v0
			c0,0.4,0.1,0.7,0.3,0.9s0.5,0.4,0.8,0.5s0.7,0.2,1.3,0.3c0,0,0,0,0.1,0c0,0,0,0,0.1,0c0,0,0.1,0,0.1,0c0,0,0.1,0,0.1,0
			c0.7,0.1,1.2,0.3,1.6,0.5c0.4,0.2,0.8,0.5,1.1,0.9c0.3,0.4,0.4,1,0.4,1.7v0c0,0.7-0.2,1.2-0.5,1.7c-0.3,0.5-0.8,0.8-1.3,1.1
			c-0.6,0.2-1.3,0.4-2.1,0.4C110.1,45.2,109.6,45.2,109.1,45.1z"/>
		<path class="st3" d="M116.7,34.3h1.5v10.8h-1.5V34.3z M117.9,40.4l4.7-6h1.9l-6.8,8.3L117.9,40.4z M119.6,39.4l1.2-1.1l4.1,6.8
			h-1.8L119.6,39.4z"/>
		<path class="st3" d="M133.4,34.3h1.3l4,10.8H137l-3-8.7l-3,8.7h-1.6L133.4,34.3z M131.2,41.3h5.7v1.4h-5.7V41.3z"/>
		<path class="st3" d="M142,45.1c-0.5-0.1-0.9-0.2-1.3-0.4c-0.4-0.2-0.8-0.4-1.1-0.7l0.9-1.2c0.4,0.4,0.9,0.6,1.4,0.8
			c0.5,0.2,1,0.3,1.6,0.3c0.8,0,1.4-0.1,1.8-0.4c0.4-0.3,0.6-0.7,0.6-1.2v0c0-0.4-0.1-0.7-0.3-0.9c-0.2-0.2-0.4-0.4-0.8-0.5
			c-0.3-0.1-0.7-0.2-1.2-0.3c0,0,0,0,0,0c0,0,0,0,0,0l-0.1,0c-0.7-0.1-1.3-0.3-1.8-0.4s-0.8-0.4-1.2-0.9c-0.3-0.4-0.5-1-0.5-1.8v0
			c0-0.7,0.1-1.2,0.4-1.7c0.3-0.5,0.7-0.8,1.3-1.1c0.6-0.2,1.3-0.4,2.1-0.4c0.4,0,0.8,0,1.1,0.1c0.4,0.1,0.7,0.2,1.1,0.4
			c0.4,0.2,0.7,0.4,1.1,0.6l-0.9,1.2c-0.4-0.3-0.8-0.5-1.2-0.7c-0.4-0.2-0.8-0.2-1.2-0.2c-0.7,0-1.3,0.1-1.7,0.4
			c-0.4,0.3-0.6,0.7-0.6,1.2v0c0,0.4,0.1,0.7,0.3,0.9c0.2,0.2,0.5,0.4,0.8,0.5s0.7,0.2,1.3,0.3c0,0,0,0,0.1,0c0,0,0,0,0.1,0
			c0,0,0.1,0,0.1,0c0,0,0.1,0,0.1,0c0.7,0.1,1.2,0.3,1.6,0.5c0.4,0.2,0.8,0.5,1.1,0.9c0.3,0.4,0.4,1,0.4,1.7v0
			c0,0.7-0.2,1.2-0.5,1.7s-0.8,0.8-1.4,1.1c-0.6,0.2-1.3,0.4-2.1,0.4C143,45.2,142.5,45.2,142,45.1z"/>
		<path class="st3" d="M151.4,45.1c-0.5-0.1-0.9-0.2-1.3-0.4c-0.4-0.2-0.8-0.4-1.1-0.7l0.9-1.2c0.4,0.4,0.9,0.6,1.4,0.8
			c0.5,0.2,1,0.3,1.6,0.3c0.8,0,1.4-0.1,1.8-0.4c0.4-0.3,0.6-0.7,0.6-1.2v0c0-0.4-0.1-0.7-0.3-0.9c-0.2-0.2-0.4-0.4-0.8-0.5
			c-0.3-0.1-0.7-0.2-1.2-0.3c0,0,0,0,0,0c0,0,0,0,0,0l-0.1,0c-0.7-0.1-1.3-0.3-1.8-0.4s-0.8-0.4-1.2-0.9c-0.3-0.4-0.5-1-0.5-1.8v0
			c0-0.7,0.1-1.2,0.4-1.7c0.3-0.5,0.7-0.8,1.3-1.1c0.6-0.2,1.3-0.4,2.1-0.4c0.4,0,0.8,0,1.1,0.1c0.4,0.1,0.7,0.2,1.1,0.4
			c0.4,0.2,0.7,0.4,1.1,0.6l-0.9,1.2c-0.4-0.3-0.8-0.5-1.2-0.7c-0.4-0.2-0.8-0.2-1.2-0.2c-0.7,0-1.3,0.1-1.7,0.4
			c-0.4,0.3-0.6,0.7-0.6,1.2v0c0,0.4,0.1,0.7,0.3,0.9c0.2,0.2,0.5,0.4,0.8,0.5s0.7,0.2,1.3,0.3c0,0,0,0,0.1,0c0,0,0,0,0.1,0
			c0,0,0.1,0,0.1,0c0,0,0.1,0,0.1,0c0.7,0.1,1.2,0.3,1.6,0.5c0.4,0.2,0.8,0.5,1.1,0.9c0.3,0.4,0.4,1,0.4,1.7v0
			c0,0.7-0.2,1.2-0.5,1.7s-0.8,0.8-1.4,1.1c-0.6,0.2-1.3,0.4-2.1,0.4C152.3,45.2,151.8,45.2,151.4,45.1z"/>
		<path class="st3" d="M158.9,34.3h1.5v10.8h-1.5V34.3z M159.7,34.3h6.2v1.4h-6.2V34.3z M159.7,39h5.4v1.4h-5.4V39z M159.7,43.7h6.2
			v1.4h-6.2V43.7z"/>
		<path class="st3" d="M169.7,45.1c-0.5-0.1-0.9-0.2-1.3-0.4c-0.4-0.2-0.8-0.4-1.1-0.7l0.9-1.2c0.4,0.4,0.9,0.6,1.4,0.8
			c0.5,0.2,1,0.3,1.6,0.3c0.8,0,1.4-0.1,1.8-0.4c0.4-0.3,0.6-0.7,0.6-1.2v0c0-0.4-0.1-0.7-0.3-0.9c-0.2-0.2-0.4-0.4-0.8-0.5
			c-0.3-0.1-0.7-0.2-1.2-0.3c0,0,0,0,0,0c0,0,0,0,0,0l-0.1,0c-0.7-0.1-1.3-0.3-1.8-0.4s-0.8-0.4-1.2-0.9c-0.3-0.4-0.5-1-0.5-1.8v0
			c0-0.7,0.1-1.2,0.4-1.7c0.3-0.5,0.7-0.8,1.3-1.1c0.6-0.2,1.3-0.4,2.1-0.4c0.4,0,0.8,0,1.1,0.1c0.4,0.1,0.7,0.2,1.1,0.4
			c0.4,0.2,0.7,0.4,1.1,0.6l-0.9,1.2c-0.4-0.3-0.8-0.5-1.2-0.7c-0.4-0.2-0.8-0.2-1.2-0.2c-0.7,0-1.3,0.1-1.7,0.4
			c-0.4,0.3-0.6,0.7-0.6,1.2v0c0,0.4,0.1,0.7,0.3,0.9c0.2,0.2,0.5,0.4,0.8,0.5s0.7,0.2,1.3,0.3c0,0,0,0,0.1,0c0,0,0,0,0.1,0
			c0,0,0.1,0,0.1,0c0,0,0.1,0,0.1,0c0.7,0.1,1.2,0.3,1.6,0.5c0.4,0.2,0.8,0.5,1.1,0.9c0.3,0.4,0.4,1,0.4,1.7v0
			c0,0.7-0.2,1.2-0.5,1.7s-0.8,0.8-1.4,1.1c-0.6,0.2-1.3,0.4-2.1,0.4C170.7,45.2,170.2,45.2,169.7,45.1z"/>
		<path class="st3" d="M179.1,45.1c-0.5-0.1-0.9-0.2-1.3-0.4c-0.4-0.2-0.8-0.4-1.1-0.7l0.9-1.2c0.4,0.4,0.9,0.6,1.4,0.8
			c0.5,0.2,1,0.3,1.6,0.3c0.8,0,1.4-0.1,1.8-0.4c0.4-0.3,0.6-0.7,0.6-1.2v0c0-0.4-0.1-0.7-0.3-0.9c-0.2-0.2-0.4-0.4-0.8-0.5
			c-0.3-0.1-0.7-0.2-1.2-0.3c0,0,0,0,0,0c0,0,0,0,0,0l-0.1,0c-0.7-0.1-1.3-0.3-1.8-0.4s-0.8-0.4-1.2-0.9c-0.3-0.4-0.5-1-0.5-1.8v0
			c0-0.7,0.1-1.2,0.4-1.7c0.3-0.5,0.7-0.8,1.3-1.1c0.6-0.2,1.3-0.4,2.1-0.4c0.4,0,0.8,0,1.1,0.1c0.4,0.1,0.7,0.2,1.1,0.4
			c0.4,0.2,0.7,0.4,1.1,0.6l-0.9,1.2c-0.4-0.3-0.8-0.5-1.2-0.7c-0.4-0.2-0.8-0.2-1.2-0.2c-0.7,0-1.3,0.1-1.7,0.4
			c-0.4,0.3-0.6,0.7-0.6,1.2v0c0,0.4,0.1,0.7,0.3,0.9c0.2,0.2,0.5,0.4,0.8,0.5s0.7,0.2,1.3,0.3c0,0,0,0,0.1,0c0,0,0,0,0.1,0
			c0,0,0.1,0,0.1,0c0,0,0.1,0,0.1,0c0.7,0.1,1.2,0.3,1.6,0.5c0.4,0.2,0.8,0.5,1.1,0.9c0.3,0.4,0.4,1,0.4,1.7v0
			c0,0.7-0.2,1.2-0.5,1.7s-0.8,0.8-1.4,1.1c-0.6,0.2-1.3,0.4-2.1,0.4C180,45.2,179.5,45.2,179.1,45.1z"/>
		<path class="st3" d="M194.4,34.3h1.4v10.8h-1.5V37l0.1,0.5l-2.6,6.1h-1.1l-2.6-5.9l0.1-0.6v8.1h-1.5V34.3h1.4l3.2,7.1L194.4,34.3z
			"/>
		<path class="st3" d="M198.4,34.3h1.5v10.8h-1.5V34.3z M199.2,34.3h6.2v1.4h-6.2V34.3z M199.2,39h5.4v1.4h-5.4V39z M199.2,43.7h6.2
			v1.4h-6.2V43.7z"/>
		<path class="st3" d="M207.5,34.3h1.4l5.3,8.3l-0.2,0.2v-8.5h1.5v10.7H214l-5.2-8.2l0.2-0.2v8.4h-1.5V34.3z"/>
		<path class="st3" d="M216.6,34.3h7.6v1.4h-7.6V34.3z M219.7,35.2h1.5v9.9h-1.5V35.2z"/>
	</g>
</g>
<text transform="matrix(1 0 0 1 79.187 54.3701)" class="st1 st4 st5">Protect Your Premises From Fire</text>
</svg>
